:SAMPLES-PER-SECOND 30
:FULLY-SPECIFIED
:DEGREES
1
root  -112.847 36.7091 -9.99925 21.2329 79.8859 14.2281
RightUpLeg  10.1089 3.42246 -2.64634
RightLeg  32.8533 13.5096 2.71441
RightFoot  35.8653 -4.34001 9.47569
RightToes  -1.16416e-010 -3.18055e-015 8.94531e-016
Spine  -4.2288 5.63585 9.5334
Spine1  12.0212 10.1035 -17.0276
HEad  -10.9642 -7.44266 7.68116
LeftShoulder1  0 -2.69403e-036 -1.28585e-037
LeftArm  -11.9907 55.9597 -59.1424
LeftForeArm  4.10245 -0.943224 -2.82195
LeftHand  0.326529 2.64195 0.867667
RightShoulder  -2.48481e-017 0 -8.08114e-019
RightArm  16.8155 20.7021 79.9694
RightForeArm  -35.9401 24.4114 -23.4048
RightHand  1.21199 -10.3537 -5.66469
LeftUpLeg  -41.86 -6.40476 0.753987
LeftLeg  26.8246 1.41451 6.0923
LeftFoot  7.40883 0.432282 -2.24749
LeftToes  4.03816e-010 4.04885e-011 2.79281e-011
2
root  -111.23 36.8208 -10.0964 28.5685 80.667 21.5211
RightUpLeg  5.38371 3.01262 -3.00191
RightLeg  39.4297 9.71318 -0.369397
RightFoot  39.9467 -3.9782 7.95529
RightToes  -1.16416e-010 -3.18055e-015 8.94531e-016
Spine  -4.44159 4.77352 6.59657
Spine1  13.7164 8.87717 -14.8611
HEad  -12.037 -7.24194 6.74164
LeftShoulder1  0 -2.69403e-036 -1.28585e-037
LeftArm  -18.1839 49.17 -65.8208
LeftForeArm  1.90083 -0.846257 -2.83643
LeftHand  0.723437 5.04176 -2.08254
RightShoulder  -2.48481e-017 0 -8.08114e-019
RightArm  21.7427 18.718 81.5144
RightForeArm  -39.7094 22.2295 -21.9709
RightHand  1.21899 -10.5812 -4.9461
LeftUpLeg  -40.4037 -7.34524 -1.1436
LeftLeg  29.3358 0.50313 6.37993
LeftFoot  3.28595 0.229806 -1.47313
LeftToes  4.03816e-010 4.04885e-011 2.79281e-011
3
root  -109.262 37.218 -10.1754 34.5333 81.2403 27.2781
RightUpLeg  -1.09387 3.05756 -2.92133
RightLeg  47.1726 7.68693 -3.00699
RightFoot  34.4694 -3.21013 7.27393
RightToes  -1.16416e-010 -3.18055e-015 8.94531e-016
Spine  -2.88844 3.84008 4.29566
Spine1  12.5216 7.42085 -13.4056
HEad  -11.537 -6.75164 5.99784
LeftShoulder1  0 -2.69403e-036 -1.28585e-037
LeftArm  -20.602 41.7684 -70.6313
LeftForeArm  3.29457 -1.08135 -3.62899
LeftHand  0.644728 4.2825 -2.15931
RightShoulder  -2.48481e-017 0 -8.08114e-019
RightArm  23.9287 14.4392 82.9785
RightForeArm  -41.2485 20.6295 -19.1848
RightHand  1.1614 -10.4996 -3.66969
LeftUpLeg  -37.4595 -7.4436 -2.89086
LeftLeg  30.1872 -0.332681 6.14705
LeftFoot  -0.84238 0.107412 -0.996546
LeftToes  4.03816e-010 4.04885e-011 2.79281e-011
4
root  -107.308 37.6387 -10.2215 36.7493 81.9122 29.5171
RightUpLeg  -7.24777 3.06901 -2.12319
RightLeg  52.7624 7.86319 -3.57283
RightFoot  22.3301 -1.89569 5.90534
RightToes  -1.16416e-010 -3.18055e-015 8.94531e-016
Spine  -1.82209 2.94239 3.14795
Spine1  11.4006 6.08044 -12.6789
HEad  -10.1871 -6.20811 5.89129
LeftShoulder1  0 -2.69403e-036 -1.28585e-037
LeftArm  -18.8459 35.7094 -74.0085
LeftForeArm  3.6291 -1.64334 -4.89766
LeftHand  0.546661 3.4607 -2.08437
RightShoulder  -2.48481e-017 0 -8.08114e-019
RightArm  20.2665 8.72742 84.3773
RightForeArm  -37.3027 19.916 -14.9761
RightHand  1.08478 -10.1507 -2.73414
LeftUpLeg  -33.9788 -7.21012 -3.71736
LeftLeg  30.3167 -0.982858 5.78439
LeftFoot  -4.19187 0.0711528 -1.02828
LeftToes  4.03816e-010 4.04885e-011 2.79281e-011
5
root  -105.316 37.8881 -10.2609 38.5154 83.1251 31.76
RightUpLeg  -12.7284 2.38768 -0.931277
RightLeg  55.4188 8.54224 -2.95802
RightFoot  11.096 -0.577892 2.5323
RightToes  -1.16416e-010 -3.18055e-015 8.94531e-016
Spine  -1.9455 1.7944 1.95034
Spine1  11.8767 4.34969 -11.4456
HEad  -8.97964 -5.53802 5.85308
LeftShoulder1  0 -2.69403e-036 -1.28585e-037
LeftArm  -14.2062 29.1284 -76.9999
LeftForeArm  -0.730006 -2.74537 -6.11338
LeftHand  0.737532 4.94123 -2.90844
RightShoulder  -2.48481e-017 0 -8.08114e-019
RightArm  14.964 2.31528 85.7097
RightForeArm  -32.5012 19.2451 -11.0554
RightHand  1.08987 -10.1552 -2.88154
LeftUpLeg  -30.1857 -8.02943 -3.93725
LeftLeg  30.8153 -1.23131 5.78379
LeftFoot  -7.95365 0.0511126 -1.60239
LeftToes  4.03816e-010 4.04885e-011 2.79281e-011
6
root  -103.135 38.2286 -10.3101 35.8081 85.0461 29.815
RightUpLeg  -17.6288 1.21668 0.877826
RightLeg  54.696 8.75295 -2.52
RightFoot  5.23293 -0.113616 0.702688
RightToes  -1.16416e-010 -3.18055e-015 8.94531e-016
Spine  -1.9709 0.357438 1.4513
Spine1  11.8445 2.12104 -8.92897
HEad  -7.9364 -3.44964 4.93787
LeftShoulder1  0 -2.69403e-036 -1.28585e-037
LeftArm  -7.55989 22.2841 -79.4354
LeftForeArm  -6.99141 -5.59883 -6.50729
LeftHand  0.904397 6.38641 -3.09585
RightShoulder  -2.48481e-017 0 -8.08114e-019
RightArm  12.781 -4.78374 86.5953
RightForeArm  -31.1973 18.8467 -8.91748
RightHand  1.15508 -10.496 -3.50045
LeftUpLeg  -25.0142 -9.84284 -3.32278
LeftLeg  29.8171 -0.565195 5.91151
LeftFoot  -11.3486 0.00489253 -2.19569
LeftToes  4.03816e-010 4.04885e-011 2.79281e-011
7
root  -100.899 38.5272 -10.3352 24.4569 86.5475 19.1222
RightUpLeg  -21.5237 0.551243 2.48036
RightLeg  51.1396 9.10763 -1.63616
RightFoot  -0.911871 -0.114372 1.13554
RightToes  -1.16416e-010 -3.18055e-015 8.94531e-016
Spine  -1.61073 -0.979522 0.682401
Spine1  11.1037 -0.156348 -5.48322
HEad  -6.87842 0.088749 2.78672
LeftShoulder1  0 -2.69403e-036 -1.28585e-037
LeftArm  -3.47521 16.5529 -80.8949
LeftForeArm  -7.68101 -8.27321 -5.80034
LeftHand  0.696356 4.8635 -1.60072
RightShoulder  -2.48481e-017 0 -8.08114e-019
RightArm  16.2433 -12.35 86.8786
RightForeArm  -34.3436 19.1479 -8.90902
RightHand  1.18059 -10.6697 -3.58205
LeftUpLeg  -19.6464 -11.6731 -2.52971
LeftLeg  28.3273 0.765661 6.2428
LeftFoot  -13.8654 -0.0509127 -2.45591
LeftToes  4.03816e-010 4.04885e-011 2.79281e-011
8
root  -98.6612 38.6255 -10.3314 2.57804 87.2912 -2.23976
RightUpLeg  -25.808 0.419826 3.84745
RightLeg  46.1139 8.95322 -1.37219
RightFoot  -3.19879 -0.220578 2.5518
RightToes  -1.16416e-010 -3.18055e-015 8.94531e-016
Spine  -1.93229 -2.27129 -0.727588
Spine1  11.2507 -2.47603 -1.37185
HEad  -6.57591 2.29128 1.54085
LeftShoulder1  0 -2.69403e-036 -1.28585e-037
LeftArm  -1.29351 11.4847 -81.546
LeftForeArm  -9.64546 -11.258 -4.06508
LeftHand  0.705738 4.92416 -1.50613
RightShoulder  -2.48481e-017 0 -8.08114e-019
RightArm  24.576 -19.6142 86.495
RightForeArm  -40.5891 19.8846 -10.3463
RightHand  1.16201 -10.667 -3.09678
LeftUpLeg  -14.7338 -12.7927 -1.90124
LeftLeg  27.4235 1.64501 6.44645
LeftFoot  -16.1234 -0.106276 -2.504
LeftToes  4.03816e-010 4.04885e-011 2.79281e-011
9
root  -96.4452 38.449 -10.304 -24.9681 87.7118 -29.3661
RightUpLeg  -29.8587 0.152699 4.81227
RightLeg  40.3235 9.32605 -0.637366
RightFoot  -3.91164 -0.162297 2.01156
RightToes  -1.16416e-010 -3.18055e-015 8.94531e-016
Spine  -2.77554 -3.73849 -2.57666
Spine1  12.4462 -5.00742 2.73964
HEad  -7.05055 4.19657 0.960042
LeftShoulder1  0 -2.69403e-036 -1.28585e-037
LeftArm  2.23789 5.99537 -81.4246
LeftForeArm  -14.8528 -14.0512 -2.20673
LeftHand  0.835276 5.98364 -1.23243
RightShoulder  -2.48481e-017 0 -8.08114e-019
RightArm  34.5075 -26.4143 85.2458
RightForeArm  -47.5717 20.5713 -12.2031
RightHand  1.16848 -10.8197 -2.76951
LeftUpLeg  -10.4911 -13.332 -1.58886
LeftLeg  27.5911 1.92695 6.65666
LeftFoot  -18.9231 -0.194184 -2.86578
LeftToes  4.03816e-010 4.04885e-011 2.79281e-011
10
root  -94.2788 38.114 -10.2668 -53.4241 87.7075 -57.6521
RightUpLeg  -33.7167 -0.138785 5.40689
RightLeg  33.8863 10.6301 0.599685
RightFoot  -3.51434 -0.1023 1.25133
RightToes  -1.16416e-010 -3.18055e-015 8.94531e-016
Spine  -3.11126 -5.19642 -4.11799
Spine1  13.4156 -7.42755 6.2556
HEad  -7.76395 6.4342 0.238421
LeftShoulder1  0 -2.69403e-036 -1.28585e-037
LeftArm  6.46526 0.204813 -80.543
LeftForeArm  -18.1598 -15.861 -0.809697
LeftHand  0.747797 5.51019 0.170531
RightShoulder  -2.48481e-017 0 -8.08114e-019
RightArm  42.3957 -33.3317 82.8891
RightForeArm  -52.6419 20.9769 -13.5895
RightHand  1.23108 -11.1894 -3.15982
LeftUpLeg  -6.89607 -13.6135 -1.37603
LeftLeg  28.368 2.57341 7.29615
LeftFoot  -21.6904 -0.32229 -3.56469
LeftToes  4.03816e-010 4.04885e-011 2.79281e-011
11
root  -92.1417 37.6155 -10.2024 -69.2746 87.4889 -73.4517
RightUpLeg  -37.4596 -0.0269384 5.45955
RightLeg  26.6801 12.1243 1.45684
RightFoot  -2.14413 -0.203274 2.10847
RightToes  -1.16416e-010 -3.18055e-015 8.94531e-016
Spine  -2.77678 -6.44237 -5.6293
Spine1  14.0745 -9.50958 9.10056
HEad  -8.66142 7.48098 -0.435861
LeftShoulder1  0 -2.69403e-036 -1.28585e-037
LeftArm  9.10232 -5.5885 -79.0015
LeftForeArm  -18.6081 -16.8446 0.265764
LeftHand  0.60404 4.61925 1.04603
RightShoulder  -2.48481e-017 0 -8.08114e-019
RightArm  46.2313 -40.4267 79.3142
RightForeArm  -54.1723 21.0805 -13.7591
RightHand  1.32818 -11.6219 -4.06191
LeftUpLeg  -3.80812 -13.3885 -1.23616
LeftLeg  29.9562 2.64402 7.93145
LeftFoot  -24.0459 -0.5065 -4.68061
LeftToes  4.03816e-010 4.04885e-011 2.79281e-011
12
root  -89.9789 36.9083 -10.0877 -85.164 87.4801 -89.0028
RightUpLeg  -40.4611 -0.0651409 4.92551
RightLeg  19.0825 12.9326 1.48062
RightFoot  -1.13007 -0.391521 3.72226
RightToes  -1.16416e-010 -3.18055e-015 8.94531e-016
Spine  -2.15881 -7.63161 -7.3342
Spine1  15.4449 -11.4696 11.2422
HEad  -10.2447 7.63086 -0.799989
LeftShoulder1  0 -2.69403e-036 -1.28585e-037
LeftArm  9.58762 -11.6818 -77.065
LeftForeArm  -18.6049 -17.2966 1.0135
LeftHand  0.617206 4.68037 0.871955
RightShoulder  -2.48481e-017 0 -8.08114e-019
RightArm  45.8709 -47.3369 74.8039
RightForeArm  -51.9014 20.8842 -12.4739
RightHand  1.40334 -11.9621 -4.64851
LeftUpLeg  -0.619682 -12.4919 -0.984931
LeftLeg  32.1043 0.387174 7.23611
LeftFoot  -26.1692 -0.829892 -6.70352
LeftToes  4.03816e-010 4.04885e-011 2.79281e-011
13
root  -87.7815 36.1153 -9.9295 -111.332 87.1983 -114.459
RightUpLeg  -42.7551 0.411341 2.84536
RightLeg  12.6412 10.4385 1.25192
RightFoot  -0.432706 -0.51438 4.6217
RightToes  -1.16416e-010 -3.18055e-015 8.94531e-016
Spine  -1.07745 -8.81157 -8.54702
Spine1  17.433 -13.3261 12.3028
HEad  -12.326 8.23925 -0.8765
LeftShoulder1  0 -2.69403e-036 -1.28585e-037
LeftArm  8.89229 -17.8383 -75.2322
LeftForeArm  -18.4962 -17.3816 1.41986
LeftHand  0.69008 5.13752 0.550321
RightShoulder  -2.48481e-017 0 -8.08114e-019
RightArm  43.7681 -54.3226 69.717
RightForeArm  -47.2771 20.4584 -10.7313
RightHand  1.40891 -12.0269 -4.57824
LeftUpLeg  3.17351 -11.1446 -0.239221
LeftLeg  33.7755 -2.72575 5.56708
LeftFoot  -27.7456 -1.27006 -9.39448
LeftToes  4.03816e-010 4.04885e-011 2.79281e-011
